# AST/ASF file generated using VICON BodyLanguage
# -----------------------------------------------
:version 1.10
:name VICON
:units
  mass 1.0
  length 0.45
  angle deg
:documentation
   .ast/.asf automatically generated from VICON data using
   VICON BodyBuilder and BodyLanguage model FoxedUp or BRILLIANT.MOD
:root
   order TX TY TZ RX RY RZ
   axis XYZ
   position 0 0 0  
   orientation 0 0 0 
:bonedata
  begin
     id 1 
     name lhipjoint
     direction 0.547975 -0.797114 0.253638 
     length 2.36201 
     axis 0 0 0  XYZ
  end
  begin
     id 2 
     name lfemur
     direction 0.34202 -0.939693 0  
     length 7.69075  
     axis 0 0 20  XYZ
    dof rx ry rz
    limits (-160.0 20.0)
           (-70.0 70.0)
           (-60.0 70.0)
  end
  begin
     id 3 
     name ltibia
     direction 0.34202 -0.939693 0   
     length 7.91399   
     axis 0 0 20   XYZ
    dof rx
    limits (-10.0 170.0)
  end
  begin
     id 4 
     name lfoot
     direction 0.0705293 -0.193778 0.978507   
     length 2.13618   
     axis -90 7.62852e-016 20   XYZ
    dof rx rz
    limits (-45.0 90.0)
           (-70.0 20.0)
  end
  begin
     id 5 
     name ltoes
     direction 1.53592e-011 -4.21925e-011 1   
     length 1.07518   
     axis -90 7.62852e-016 20   XYZ
    dof rx
    limits (-90.0 20.0)
  end
  begin
     id 6 
     name rhipjoint
     direction -0.57 -0.782963 0.249136   
     length 2.4047  
     axis 0 0 0  XYZ 
  end
  begin
     id 7 
     name rfemur
     direction -0.34202 -0.939693 0   
     length 7.51486   
     axis 0 0 -20   XYZ
    dof rx ry rz
    limits (-160.0 20.0)
           (-70.0 70.0)
           (-70.0 60.0)
  end
  begin
     id 8 
     name rtibia
     direction -0.34202 -0.939693 0   
     length 8.08317   
     axis 0 0 -20   XYZ
    dof rx
    limits (-10.0 170.0)
 end
 begin
     id 9 
     name rfoot
     direction -0.104954 -0.281256 0.953876   
     length 2.30343  
     axis -90 -7.62852e-016 -20   XYZ
    dof rx rz
    limits (-45.0 90.0)
           (-20.0 70.0)
  end
  begin
     id 10 
     name rtoes
     direction -1.53556e-011 -4.21922e-011 1   
     length 1.14803   
     axis -90 -7.62852e-016 -20   XYZ
    dof rx
    limits (-90.0 20.0)
  end
  begin
     id 11 
     name lowerback
     direction -0.0152855 0.99353 -0.11254   
     length 2.05311   
     axis 0 0 0   XYZ
    dof rx ry rz
    limits (-20.0 45.0)
           (-30.0 30.0)
           (-30.0 30.0)
  end
  begin
     id 12 
     name upperback
     direction -0.00157509 0.999443 -0.033332   
     length 2.06353   
     axis 0 0 0   XYZ
    dof rx ry rz
    limits (-20.0 45.0)
           (-30.0 30.0)
           (-30.0 30.0)
  end
  begin
     id 13 
     name thorax
     direction 0.00577788 0.999804 0.0189484   
     length 2.08472   
     axis 0 0 0   XYZ
    dof rx ry rz
    limits (-20.0 45.0)
           (-30.0 30.0)
           (-30.0 30.0)
  end
  begin
     id 14 
     name lowerneck
     direction -1.09301e-005 0.994719 0.10264   
     length 1.76249   
     axis 0 0 0   XYZ
    dof rx ry rz
    limits (-20.0 45.0)
           (-30.0 30.0)
           (-30.0 30.0)
  end
  begin
     id 15 
     name upperneck
     direction 0.0495018 0.988526 -0.142706   
     length 1.77897   
     axis 0 0 0   XYZ
    dof rx ry rz
    limits (-20.0 45.0)
           (-30.0 30.0)
           (-30.0 30.0)
  end
  begin
     id 16
     name head
     direction 0.0142736 0.998114 -0.0597101  
     length 1.78934  
     axis 0 0 0   XYZ
    dof rx ry rz
    limits (-20.0 45.0)
           (-30.0 30.0)
           (-30.0 30.0)
  end
  begin
     id 17 
     name lclavicle
     direction 0.918111 0.396107 -0.0130883  
     length 3.37276  
     axis 0 0 0   XYZ
    dof ry rz
    limits (-20.0 10.0)
           (0.0 20.0)
  end
  begin
     id 18 
     name lhumerus
     direction 1 -4.48975e-011 -3.26108e-027   
     length 5.34298   
     axis 180 -30 -90   XYZ
    dof rx ry rz
    limits (-60.0 90.0)
           (-90.0 90.0)
           (-90.0 90.0)
  end
  begin
     id 19
     name lradius
     direction 1 -4.48964e-011 -8.84413e-028   
     length 3.67262   
     axis 180 -30 -90   XYZ
    dof rx
    limits (-10.0 170.0)
  end
  begin
     id 20
     name lwrist
     direction 1 -4.48991e-011 -1.24264e-027   
     length 1.83631   
     axis -2.17013e-015 90 90   XYZ
    dof ry
    limits (-180.0 0.0)
 end
  begin
     id 21 
     name lhand
     direction 1 -4.48855e-011 -2.48528e-027   
     length 0.599298   
     axis 1.58582e-015 90 90   XYZ
    dof rx rz
    limits (-90.0 90.0)
           (-45.0 45.0)
  end
  begin
     id 22 
     name lfingers
     direction 1 -4.48811e-011 -4.97056e-027   
     length 0.48317   
     axis 3.17164e-015 90 90   XYZ
    dof rx
    limits (0.0 90.0)
  end
  begin
     id 23
     name lthumb
     direction 0.707107 -6.34882e-011 0.707107   
     length 0.693738   
     axis -90 45 2.85299e-015   XYZ
    dof rx rz
    limits (-45.0 45.0)
           (-45.0 45.0)
  end
  begin
     id 24 
     name rclavicle
     direction -0.920511 0.384752 -0.0680135   
     length 3.43787  
     axis 0 0 0   XYZ 
    dof ry rz
    limits (-10.0 20.0)
           (-20.0 0.0)
  end
  begin
     id 25 
     name rhumerus
     direction -0.999976 -0.00330524 0.00603274  
     length 5.5498   
     axis 180 30 90   XYZ
    dof rx ry rz
    limits (-90.0 60.0)
           (-90.0 90.0)
           (-90.0 90.0)
  end
  begin
     id 26 
     name rradius
     direction -1 -4.48967e-011 8.62438e-027   
     length 3.69401   
     axis 180 30 90   XYZ
    dof rx
    limits (-10.0 170.0)
  end
  begin
     id 27 
     name rwrist
     direction -1 -4.4897e-011 9.54866e-027   
     length 1.84701   
     axis -7.69462e-015 -90 -90   XYZ
    dof ry
    limits (-180.0 0.0)
  end
  begin
     id 28
     name rhand
     direction -1 -4.48982e-011 1.90973e-026   
     length 0.638113   
     axis -1.21857e-014 -90 -90   XYZ
    dof rx rz
    limits (-90.0 90.0)
           (-45.0 45.0)
  end
  begin
     id 29
     name rfingers
     direction -1 -4.48936e-011 3.81946e-026   
     length 0.514463   
     axis -2.43714e-014 -90 -90   XYZ
    dof rx
    limits (0.0 90.0)
  end
  begin
     id 30
     name rthumb
     direction -0.707107 -6.34942e-011 0.707107   
     length 0.738669   
     axis -90 -45 -2.85299e-015   XYZ
    dof rx rz
    limits (-45.0 45.0)
           (-45.0 45.0)
  end
:hierarchy
  begin
    root lhipjoint rhipjoint lowerback
    lhipjoint lfemur
    lfemur ltibia
    ltibia lfoot
    lfoot ltoes
    rhipjoint rfemur
    rfemur rtibia
    rtibia rfoot
    rfoot rtoes
    lowerback upperback
    upperback thorax
    thorax lowerneck lclavicle rclavicle
    lowerneck upperneck
    upperneck head
    lclavicle lhumerus
    lhumerus lradius
    lradius lwrist
    lwrist lhand lthumb
    lhand lfingers
    rclavicle rhumerus
    rhumerus rradius
    rradius rwrist
    rwrist rhand rthumb
    rhand rfingers
  end

#!OML:ASF F:\twosubjects\two\Thursday\Session 1\Rory.ASF
:FULLY-SPECIFIED
:DEGREES
1
root 21.1815 18.4844 -0.515591 2.33334 -11.0054 -0.3328
lowerback 2.18569 -2.89731 -2.19198
upperback 1.15654 -3.91277 -2.45739
thorax -0.0626368 -1.96004 -1.20606
lowerneck 8.96352 -20.3967 -15.8631
upperneck -4.03622 -29.3528 27.2857
head 3.95306 -15.3153 8.97698
rclavicle 1.67973e-014 -2.06736e-014
rhumerus -29.9114 -4.04445 -83.3006
rradius 44.9197
rwrist 10.521
rhand -21.357 20.3869
rfingers 7.12502
rthumb 5.02964 -9.53341
lclavicle 1.67973e-014 -2.06736e-014
lhumerus -39.6693 9.87938 70.532
lradius 33.6745
lwrist -17.4442
lhand -9.18907 30.3499
lfingers 7.12502
lthumb 16.7644 59.6461
rfemur -12.4018 7.01448 26.9269
rtibia 30.1438
rfoot -14.9872 0.0694716
rtoes -4.96419
lfemur -22.7507 8.32697 -14.7893
ltibia 61.9554
lfoot -7.63032 -0.0452369
ltoes -6.96573
2
root 21.1685 18.4829 -0.378127 2.30367 -11.2448 -0.73014
lowerback 2.26938 -2.7585 -1.68568
upperback 1.16301 -3.72154 -2.48822
thorax -0.136231 -1.86259 -1.51806
lowerneck 8.41915 -20.4004 -15.5384
upperneck -2.77574 -29.4681 26.6366
head 4.26942 -15.268 8.62897
rclavicle -5.89397e-014 -7.15625e-015
rhumerus -29.4033 -3.83195 -83.5647
rradius 45.9218
rwrist 10.3789
rhand -21.2081 20.2893
rfingers 7.12502
rthumb 5.17346 -9.6276
lclavicle -5.89397e-014 -7.15625e-015
lhumerus -40.0688 10.338 70.033
lradius 33.9046
lwrist -17.6472
lhand -10.6965 29.2726
lfingers 7.12502
lthumb 15.3129 58.6857
rfemur -11.6777 7.02579 27.3827
rtibia 29.9169
rfoot -15.141 0.096053
rtoes -5.87802
lfemur -23.558 8.05867 -14.4069
ltibia 61.1336
lfoot -8.91313 0.38898
ltoes -8.51254
3
root 21.1568 18.488 -0.242479 2.40427 -11.4928 -0.880783
lowerback 2.21581 -2.65217 -1.47351
upperback 1.10805 -3.57536 -2.41836
thorax -0.169091 -1.78885 -1.5689
lowerneck 7.73432 -20.3684 -15.4269
upperneck -1.57105 -29.5127 25.8931
head 4.59576 -15.1752 8.27504
rclavicle 8.44835e-015 1.51076e-014
rhumerus -28.9352 -3.22547 -83.5725
rradius 46.9843
rwrist 10.0108
rhand -20.9734 19.7212
rfingers 7.12502
rthumb 5.40007 -10.19
lclavicle 8.44835e-015 1.51076e-014
lhumerus -40.2909 10.6621 69.9362
lradius 33.6869
lwrist -17.6667
lhand -10.9583 28.9846
lfingers 7.12502
lthumb 15.0607 58.4168
rfemur -11.4197 6.91771 27.5198
rtibia 30.1549
rfoot -15.6813 0.410068
rtoes -5.02228
lfemur -24.3997 7.71713 -14.3511
ltibia 59.8955
lfoot -9.43918 0.727457
ltoes -8.74183
4
root 21.1548 18.4733 -0.107115 2.45953 -11.8978 -0.820535
lowerback 2.16303 -2.576 -1.46845
upperback 1.01541 -3.47485 -2.40262
thorax -0.232182 -1.7385 -1.55776
lowerneck 7.29747 -20.2056 -15.2971
upperneck -0.5702 -29.3685 25.3139
head 4.81358 -15.0244 8.04453
rclavicle -8.44835e-015 -3.33958e-014
rhumerus -28.4341 -2.45784 -83.6625
rradius 47.8702
rwrist 9.544
rhand -20.7796 19.9061
rfingers 7.12502
rthumb 5.58714 -10.0002
lclavicle -8.44835e-015 -3.33958e-014
lhumerus -40.6555 11.0116 69.8244
lradius 33.4227
lwrist -17.2418
lhand -11.0882 29.4916
lfingers 7.12502
lthumb 14.9355 58.9331
rfemur -11.1256 6.65644 27.3547
rtibia 30.2744
rfoot -16.3262 1.13942
rtoes -3.5237
lfemur -25.1177 7.48523 -14.5328
ltibia 58.4722
lfoot -9.81306 0.949751
ltoes -8.04422
5
root 21.1463 18.4709 0.0284805 2.51687 -12.4142 -0.933906
lowerback 2.20196 -2.51604 -1.37852
upperback 0.935432 -3.39683 -2.40713
thorax -0.340138 -1.69918 -1.60994
lowerneck 7.03186 -19.9372 -15.1167
upperneck 0.266644 -29.0943 25.0412
head 4.97826 -14.8367 7.94858
rclavicle 1.91827e-014 1.82882e-014
rhumerus -27.912 -1.57877 -84.0141
rradius 48.6867
rwrist 8.87203
rhand -20.8254 20.4753
rfingers 7.12502
rthumb 5.5429 -9.43216
lclavicle 1.91827e-014 1.82882e-014
lhumerus -41.0625 10.9703 69.6961
lradius 33.3588
lwrist -16.316
lhand -11.1299 30.0144
lfingers 7.12502
lthumb 14.8953 59.4589
rfemur -10.7051 6.82409 27.41
rtibia 30.2472
rfoot -16.6299 1.56964
rtoes -3.40207
lfemur -25.657 7.3133 -14.4902
ltibia 56.7211
lfoot -10.2095 1.46573
ltoes -8.34768
6
root 21.1339 18.4769 0.163443 2.55306 -12.7633 -0.738315
lowerback 2.14415 -2.44634 -1.61763
upperback 0.958467 -3.30657 -2.45251
thorax -0.271653 -1.65464 -1.52904
lowerneck 6.7242 -19.7498 -15.0247
upperneck 0.814719 -28.8817 24.8415
head 5.10259 -14.6878 7.87223
rclavicle -3.96575e-014 3.97569e-015
rhumerus -27.2509 -0.867902 -84.229
rradius 49.5323
rwrist 8.04657
rhand -20.8388 20.4083
rfingers 7.12502
rthumb 5.53004 -9.49956
lclavicle -3.96575e-014 3.97569e-015
lhumerus -41.2144 11.207 69.6153
lradius 33.3784
lwrist -15.581
lhand -12.2181 29.7552
lfingers 7.12502
lthumb 13.8468 59.2743
rfemur -10.1898 6.98393 27.1458
rtibia 30.0474
rfoot -16.8305 1.80135
rtoes -3.47408
lfemur -26.2137 6.68569 -14.7806
ltibia 54.8095
lfoot -10.6235 2.42547
ltoes -9.72263
